<svg id="Layer_1" data-name="Layer 1" xmlns="http://www.w3.org/2000/svg" viewBox="0 0 119.45 44"><defs><style>.cls-1{fill:#3273b9;}.cls-2{fill:#1d1d1b;}</style></defs><g id="logo"><path id="logo_t" class="cls-1" d="M38.41,3v8.11H25.67V45.21h-9.5V11.08H3.43V3Z" transform="translate(-3.43 -2)"/><path id="logo_g" class="cls-2" d="M63.7,10.29q-6.63,0-9.6,3.69c-2,2.45-3,5.82-3,10.08a20.23,20.23,0,0,0,.73,5.64,12.6,12.6,0,0,0,2.19,4.36,10,10,0,0,0,3.66,2.83,12.18,12.18,0,0,0,5.12,1c1.06,0,2,0,2.71-.07a13.08,13.08,0,0,0,2-.24V22.9h9.51V43.81a37.27,37.27,0,0,1-5.48,1.43,48.07,48.07,0,0,1-9.33.76,24.32,24.32,0,0,1-8.62-1.46A18.13,18.13,0,0,1,47,40.27a19,19,0,0,1-4.23-6.89,26.92,26.92,0,0,1-1.49-9.32,25,25,0,0,1,1.64-9.39,20.25,20.25,0,0,1,4.51-6.91,19.11,19.11,0,0,1,6.74-4.3A23.25,23.25,0,0,1,62.42,2a34,34,0,0,1,5.4.39A34.4,34.4,0,0,1,72,3.31a18.52,18.52,0,0,1,2.87,1.07,18,18,0,0,1,1.61.85L73.7,12.85a24.88,24.88,0,0,0-4.48-1.8A19,19,0,0,0,63.7,10.29Z" transform="translate(-3.43 -2)"/><path id="logo_d" class="cls-2" d="M122.88,24.06a24.63,24.63,0,0,1-1.71,9.57,17.6,17.6,0,0,1-4.84,6.76,20.69,20.69,0,0,1-7.65,4,35.63,35.63,0,0,1-10.12,1.34q-2.55,0-6-.22a48,48,0,0,1-6.7-.88V3.52a56.55,56.55,0,0,1,6.85-.82q3.57-.21,6.13-.21a36.72,36.72,0,0,1,9.84,1.22,20.22,20.22,0,0,1,7.59,3.83,17.06,17.06,0,0,1,4.87,6.71A25.33,25.33,0,0,1,122.88,24.06ZM95.39,37.47q.67.06,1.56.09t2.1,0q7.13,0,10.57-3.59t3.45-9.94q0-6.64-3.29-10.06T99.35,10.59l-2,0a16.72,16.72,0,0,0-2,.16Z" transform="translate(-3.43 -2)"/></g></svg>