<svg id="Layer_1" data-name="Layer 1" xmlns="http://www.w3.org/2000/svg" viewBox="0 0 118.08 43.32"><defs><style>.cls-1{fill:#3273b9;}.cls-2{fill:#1d1d1b;}</style></defs><path class="cls-1" d="M38.56,3.3v8H26v33.6H16.66V11.28H4.12v-8Z" transform="translate(-4.12 -2.34)"/><path class="cls-2" d="M81,24.06a24.31,24.31,0,0,1-1.68,9.42,17.45,17.45,0,0,1-4.77,6.66,20.38,20.38,0,0,1-7.52,4,35,35,0,0,1-10,1.32q-2.53,0-5.88-.21a48,48,0,0,1-6.61-.87V3.84A55.14,55.14,0,0,1,51.3,3c2.34-.14,4.36-.21,6-.21A36.41,36.41,0,0,1,67,4,19.87,19.87,0,0,1,74.5,7.8a16.88,16.88,0,0,1,4.79,6.6A25,25,0,0,1,81,24.06Zm-27,13.2q.64.06,1.53.09c.57,0,1.26,0,2.06,0q7,0,10.41-3.54t3.39-9.78q0-6.54-3.23-9.9T57.81,10.8l-2,0a18.29,18.29,0,0,0-1.91.15Z" transform="translate(-4.12 -2.34)"/><path class="cls-2" d="M109.05,10.5q-6.54,0-9.45,3.63t-2.91,9.93a19.58,19.58,0,0,0,.73,5.55,12,12,0,0,0,2.15,4.29,9.73,9.73,0,0,0,3.6,2.79,12,12,0,0,0,5,1q1.56,0,2.67-.06a12.66,12.66,0,0,0,2-.24V22.92h9.36V43.5a35.26,35.26,0,0,1-5.4,1.41,47.42,47.42,0,0,1-9.18.75,23.76,23.76,0,0,1-8.48-1.44A17.79,17.79,0,0,1,92.61,40a18.75,18.75,0,0,1-4.17-6.78A26.63,26.63,0,0,1,87,24.06a24.58,24.58,0,0,1,1.62-9.24A19.9,19.9,0,0,1,93,8a18.67,18.67,0,0,1,6.64-4.23,22.75,22.75,0,0,1,8.12-1.44,32.88,32.88,0,0,1,5.31.39,33.5,33.5,0,0,1,4.08.9,18.93,18.93,0,0,1,2.82,1q1.11.54,1.59.84l-2.7,7.5a24.4,24.4,0,0,0-4.41-1.77A18.76,18.76,0,0,0,109.05,10.5Z" transform="translate(-4.12 -2.34)"/></svg>