<?xml version="1.0" encoding="UTF-8" standalone="no"?>
<!-- Created with Inkscape (http://www.inkscape.org/) -->

<svg
        xmlns:dc="http://purl.org/dc/elements/1.1/"
        xmlns:cc="http://creativecommons.org/ns#"
        xmlns:rdf="http://www.w3.org/1999/02/22-rdf-syntax-ns#"
        xmlns="http://www.w3.org/2000/svg"
        xmlns:sodipodi="http://sodipodi.sourceforge.net/DTD/sodipodi-0.dtd"
        xmlns:inkscape="http://www.inkscape.org/namespaces/inkscape"
        width="48"
        height="48"
        viewBox="0 0 12.7 12.7"
        version="1.1"
        id="svg2522"
        inkscape:version="0.92.3 (5aff6ba, 2018-11-25)"
        sodipodi:docname="app-logo.svg">
  <defs
     id="defs2516" />
  <sodipodi:namedview
     id="base"
     pagecolor="#ffffff"
     bordercolor="#666666"
     borderopacity="1.0"
     inkscape:pageopacity="0.0"
     inkscape:pageshadow="2"
     inkscape:zoom="11.520833"
     inkscape:cx="27.905967"
     inkscape:cy="26.300181"
     inkscape:document-units="px"
     inkscape:current-layer="layer1"
     showgrid="false"
     units="px"
     objecttolerance="1"
     guidetolerance="1"
     inkscape:window-width="1360"
     inkscape:window-height="719"
     inkscape:window-x="0"
     inkscape:window-y="25"
     inkscape:window-maximized="1"
     showguides="true"
     inkscape:guide-bbox="true">
    <sodipodi:guide
       position="6.3614828,12.470344"
       orientation="1,0"
       id="guide1989"
       inkscape:locked="false" />
    <sodipodi:guide
       position="11.207233,6.9126582"
       orientation="0,1"
       id="guide1991"
       inkscape:locked="false" />
  </sodipodi:namedview>
  <metadata
     id="metadata2519">
    <rdf:RDF>
      <cc:Work
         rdf:about="">
        <dc:format>image/svg+xml</dc:format>
        <dc:type
           rdf:resource="http://purl.org/dc/dcmitype/StillImage" />
        <dc:title></dc:title>
      </cc:Work>
    </rdf:RDF>
  </metadata>
  <g
     inkscape:label="Layer 1"
     inkscape:groupmode="layer"
     id="layer1"
     transform="translate(0,-284.29998)">
    <path
       inkscape:connector-curvature="0"
       id="path318"
       style="fill:#2c5aa0;fill-opacity:1;fill-rule:nonzero;stroke:none;stroke-width:0.00671958"
       d="m 11.129299,296.45569 c 0,0.30064 -0.243719,0.54429 -0.544286,0.54429 H 2.131786 c -0.300594,0 -0.544286,-0.24365 -0.544286,-0.54429 v -10.4019 c 0,-0.30057 0.243692,-0.54429 0.544286,-0.54429 h 8.453227 c 0.300567,0 0.544286,0.24372 0.544286,0.54429 v 10.4019" />
    <path
       inkscape:connector-curvature="0"
       id="path320"
       style="fill:#2c5aa0;fill-opacity:1;fill-rule:nonzero;stroke:none;stroke-width:0.00671958"
       d="m 2.494643,295.45448 h 8.593196 c 0.02661,-0.0642 0.04146,-0.13446 0.04146,-0.20831 v -10.4019 c 0,-0.30057 -0.243719,-0.54429 -0.544286,-0.54429 H 2.131786 c -0.300594,0 -0.544286,0.24372 -0.544286,0.54429 v 10.4019 c 0,0.30063 0.243692,0.54429 0.544286,0.54429 h 0.362857 v -0.33598" />
    <path
       inkscape:connector-curvature="0"
       id="path324"
       style="fill:#2c5aa0;fill-opacity:1;fill-rule:nonzero;stroke:none;stroke-width:0.00671958"
       d="m 2.595436,284.29998 h -0.46365 c -0.300594,0 -0.544286,0.24372 -0.544286,0.54429 v 11.61142 c 0,0.30064 0.243692,0.54429 0.544286,0.54429 h 0.46365 v -12.7" />
    <path
       inkscape:connector-curvature="0"
       id="path326"
       style="fill:#ffffff;fill-opacity:1;fill-rule:nonzero;stroke:none;stroke-width:0.00671958"
       d="M 10.759722,295.45448 H 2.494643 c -0.315417,0 -0.571164,0.25574 -0.571164,0.57116 0,0.31542 0.255747,0.57116 0.571164,0.57116 h 8.265079 v -1.14232" />
    <path
       inkscape:connector-curvature="0"
       id="path324-9"
       style="opacity:0.19200003;fill:#000000;fill-opacity:1;fill-rule:nonzero;stroke:none;stroke-width:0.00671958"
       d="m 2.595436,284.29998 h -0.46365 c -0.300594,0 -0.544286,0.24372 -0.544286,0.54429 v 11.61142 c 0,0.30064 0.243692,0.54429 0.544286,0.54429 h 0.46365 v -12.7" />
    <circle
       style="opacity:1;vector-effect:none;fill:#ffffff;fill-opacity:1;fill-rule:evenodd;stroke:none;stroke-width:3.38691163;stroke-linecap:butt;stroke-linejoin:miter;stroke-miterlimit:4;stroke-dasharray:none;stroke-dashoffset:0;stroke-opacity:1;paint-order:markers stroke fill"
       id="path1921"
       cx="6.3653107"
       cy="290.03659"
       r="2.6458333" />
    <g
       aria-label="TS"
       transform="matrix(0.26458333,0,0,0.26458333,1.272667,285.79275)"
       style="font-style:normal;font-variant:normal;font-weight:normal;font-stretch:normal;font-size:12px;line-height:1.25;font-family:Bungee;-inkscape-font-specification:Bungee;letter-spacing:0px;word-spacing:0px;fill:#2c5aa0;fill-opacity:1;stroke:none"
       id="flowRoot1938">
      <path
         d="m 16.452922,20.587578 h -1.944 q -0.228,0 -0.336,-0.096 -0.096,-0.108 -0.096,-0.336 v -5.892 h -1.764 q -0.228,0 -0.336,-0.096 -0.096,-0.108 -0.096,-0.336 v -1.452 q 0,-0.228 0.096,-0.324 0.108,-0.108 0.336,-0.108 h 6.336 q 0.228,0 0.324,0.108 0.108,0.096 0.108,0.324 v 1.452 q 0,0.228 -0.108,0.336 -0.096,0.096 -0.324,0.096 h -1.764 v 5.892 q 0,0.228 -0.108,0.336 -0.096,0.096 -0.324,0.096 z"
         id="path1965"
         inkscape:connector-curvature="0" />
      <path
         d="m 24.255922,20.587578 h -3.792 q -0.228,0 -0.336,-0.096 -0.096,-0.108 -0.096,-0.336 v -1.404 q 0,-0.228 0.096,-0.324 0.108,-0.108 0.336,-0.108 h 3.228 q 0.156,0 0.228,-0.096 0.084,-0.108 0.084,-0.252 0,-0.204 -0.084,-0.3 -0.072,-0.096 -0.228,-0.108 l -1.8,-0.252 q -0.84,-0.12 -1.356,-0.552 -0.504,-0.432 -0.504,-1.44 v -1.26 q 0,-1.02 0.66,-1.56 0.66,-0.552 1.824,-0.552 h 3.36 q 0.228,0 0.324,0.108 0.108,0.096 0.108,0.324 v 1.428 q 0,0.228 -0.108,0.336 -0.096,0.096 -0.324,0.096 h -2.796 q -0.156,0 -0.24,0.108 -0.084,0.096 -0.084,0.252 0,0.156 0.084,0.264 0.084,0.108 0.24,0.12 l 1.788,0.24 q 0.84,0.12 1.356,0.552 0.516,0.432 0.516,1.44 v 1.26 q 0,1.02 -0.672,1.572 -0.66,0.54 -1.812,0.54 z"
         id="path1967"
         inkscape:connector-curvature="0" />
    </g>
  </g>
</svg>
