<?xml version="1.0" encoding="UTF-8" standalone="no"?>
<!-- Generator: Adobe Illustrator 16.0.0, SVG Export Plug-In . SVG Version: 6.00 Build 0)  -->

<svg
        xmlns:dc="http://purl.org/dc/elements/1.1/"
        xmlns:cc="http://creativecommons.org/ns#"
        xmlns:rdf="http://www.w3.org/1999/02/22-rdf-syntax-ns#"
        xmlns="http://www.w3.org/2000/svg"
        xmlns:sodipodi="http://sodipodi.sourceforge.net/DTD/sodipodi-0.dtd"
        xmlns:inkscape="http://www.inkscape.org/namespaces/inkscape"
        version="1.1"
        id="Capa_1"
        x="0px"
        y="0px"
        width="24"
        height="24"
        viewBox="0 0 24.000001 24.000001"
        xml:space="preserve"
        sodipodi:docname="piggy-bank.svg"
        inkscape:version="0.92.3 (d244b95, 2018-08-02)"><metadata
   id="metadata2256"><rdf:RDF><cc:Work
       rdf:about=""><dc:format>image/svg+xml</dc:format><dc:type
         rdf:resource="http://purl.org/dc/dcmitype/StillImage" /><dc:title></dc:title></cc:Work></rdf:RDF></metadata><defs
   id="defs2254" /><sodipodi:namedview
   pagecolor="#ffffff"
   bordercolor="#666666"
   borderopacity="1"
   objecttolerance="10"
   gridtolerance="10"
   guidetolerance="10"
   inkscape:pageopacity="0"
   inkscape:pageshadow="2"
   inkscape:window-width="1360"
   inkscape:window-height="719"
   id="namedview2252"
   showgrid="false"
   inkscape:zoom="15.674246"
   inkscape:cx="13.677374"
   inkscape:cy="13.725747"
   inkscape:window-x="0"
   inkscape:window-y="25"
   inkscape:window-maximized="1"
   inkscape:current-layer="Capa_1" />
<g
   id="g2219"
   transform="matrix(0.03928364,0,0,0.03928364,-0.02079271,5.958336)">
	<path
   style="stroke-width:0.03928364"
   d="M 7.4160156,-0.04101562 C 7.2436347,-0.03623898 7.0753352,0.02511393 6.9394531,0.13671875 6.7581984,0.28556446 6.6523437,0.50793915 6.6523438,0.7421875 V 3.15625 C 5.7542416,3.7594503 5.0067246,4.5837175 4.4921875,5.5332031 H 4.0371094 c -1.1075238,0 -2.4296875,0.5492256 -2.4296875,3.1640625 0,2.6148374 1.3221637,3.1640624 2.4296875,3.1640624 h 0.4550781 c 0.659533,1.217322 1.6963727,2.213398 2.9375,2.824219 v 0.591797 c 0,0.44638 0.2020532,0.87811 0.5488281,1.091797 1.1445481,0.705283 2.8777924,0.685342 4.0332034,-0.002 0.327989,-0.195117 0.521458,-0.593578 0.546875,-1.00586 h 0.974609 c 0.02538,0.412243 0.220377,0.810911 0.548828,1.00586 1.156095,0.68619 2.888577,0.705156 4.033203,0 0.346304,-0.213343 0.548829,-0.643504 0.548828,-1.089844 v -0.603516 c 2.280455,-1.116677 3.726563,-3.408658 3.726563,-5.9785155 0,-3.6757313 -2.990795,-6.6660156 -6.666016,-6.6660156 H 10.591797 C 8.9367771,0.28243 7.7263655,-2.3803644e-4 7.5878906,-0.02734375 7.5305463,-0.03855923 7.4734758,-0.04260784 7.4160156,-0.04101562 Z M 12.488281,3.7871094 h 0.794922 v 0.8085937 c 0.576111,0.015119 1.221629,0.1163153 1.943359,0.3359375 L 14.939453,6.2421875 C 14.32833,6.0273394 13.65337,5.8313069 12.996094,5.8710938 c -1.184847,0.069229 -1.289658,1.0956943 -0.462891,1.5253906 1.3615,0.6397698 3.136719,1.115417 3.136719,2.8222656 0.0016,1.36707 -1.068188,2.094687 -2.386719,2.279297 v 0.837891 h -0.794922 v -0.794922 c -0.823584,-0.01512 -1.677286,-0.210497 -2.388672,-0.578125 l 0.363282,-1.308594 c 0.760721,0.296013 1.773059,0.609523 2.566406,0.429687 0.914298,-0.207686 1.100425,-1.1476323 0.08984,-1.599609 -0.740828,-0.3445525 -3.00586,-0.6400795 -3.00586,-2.5800781 0,-1.0845848 0.827298,-2.0570704 2.375,-2.2695313 z"
   transform="matrix(25.45589,0,0,25.45589,0.52929693,1.0606013)"
   id="path2217"
   inkscape:connector-curvature="0"
   sodipodi:nodetypes="scsccsssccsssccssccssccsccccccccccccccccscc" />
</g>
<g
   id="g2221"
   transform="translate(0,-588.00098)">
</g>
<g
   id="g2223"
   transform="translate(0,-588.00098)">
</g>
<g
   id="g2225"
   transform="translate(0,-588.00098)">
</g>
<g
   id="g2227"
   transform="translate(0,-588.00098)">
</g>
<g
   id="g2229"
   transform="translate(0,-588.00098)">
</g>
<g
   id="g2231"
   transform="translate(0,-588.00098)">
</g>
<g
   id="g2233"
   transform="translate(0,-588.00098)">
</g>
<g
   id="g2235"
   transform="translate(0,-588.00098)">
</g>
<g
   id="g2237"
   transform="translate(0,-588.00098)">
</g>
<g
   id="g2239"
   transform="translate(0,-588.00098)">
</g>
<g
   id="g2241"
   transform="translate(0,-588.00098)">
</g>
<g
   id="g2243"
   transform="translate(0,-588.00098)">
</g>
<g
   id="g2245"
   transform="translate(0,-588.00098)">
</g>
<g
   id="g2247"
   transform="translate(0,-588.00098)">
</g>
<g
   id="g2249"
   transform="translate(0,-588.00098)">
</g>
<path
   style="opacity:1;vector-effect:none;fill:#000000;fill-opacity:1;fill-rule:nonzero;stroke:none;stroke-width:0;stroke-linecap:round;stroke-linejoin:round;stroke-miterlimit:4;stroke-dasharray:none;stroke-dashoffset:0;stroke-opacity:1;paint-order:markers stroke fill"
   id="path3441"
   sodipodi:type="arc"
   sodipodi:cx="12.478504"
   sodipodi:cy="4.7551403"
   sodipodi:rx="2"
   sodipodi:ry="2"
   sodipodi:start="5.8195386"
   sodipodi:end="5.818631"
   d="M 14.267359,3.8607147 A 2,2 0 0 1 13.373336,6.5437925 2,2 0 0 1 10.690055,5.6503776 2,2 0 0 1 11.582861,2.9668944 2,2 0 0 1 14.266547,3.8590915 L 12.478504,4.7551403 Z" /></svg>