<?xml version="1.0" encoding="UTF-8" standalone="no"?>
<svg
   xmlns:dc="http://purl.org/dc/elements/1.1/"
   xmlns:cc="http://creativecommons.org/ns#"
   xmlns:rdf="http://www.w3.org/1999/02/22-rdf-syntax-ns#"
   xmlns:svg="http://www.w3.org/2000/svg"
   xmlns="http://www.w3.org/2000/svg"
   xmlns:sodipodi="http://sodipodi.sourceforge.net/DTD/sodipodi-0.dtd"
   xmlns:inkscape="http://www.inkscape.org/namespaces/inkscape"
   height="64"
   viewBox="0 0 64 64"
   width="64"
   version="1.1"
   id="svg526"
   sodipodi:docname="brickwall.svg"
   inkscape:version="0.92.4 (f8dce91, 2019-08-02)">
  <metadata
     id="metadata532">
    <rdf:RDF>
      <cc:Work
         rdf:about="">
        <dc:format>image/svg+xml</dc:format>
        <dc:type
           rdf:resource="http://purl.org/dc/dcmitype/StillImage" />
        <dc:title />
      </cc:Work>
    </rdf:RDF>
  </metadata>
  <defs
     id="defs530" />
  <sodipodi:namedview
     pagecolor="#ffffff"
     bordercolor="#666666"
     borderopacity="1"
     objecttolerance="10"
     gridtolerance="10"
     guidetolerance="10"
     inkscape:pageopacity="0"
     inkscape:pageshadow="2"
     inkscape:window-width="1360"
     inkscape:window-height="719"
     id="namedview528"
     showgrid="false"
     units="px"
     inkscape:zoom="4.1796875"
     inkscape:cx="-21.831775"
     inkscape:cy="33.794393"
     inkscape:window-x="0"
     inkscape:window-y="25"
     inkscape:window-maximized="1"
     inkscape:current-layer="svg526" />
  <path
     d="M 16,37.33333 V 48 c 0,0.58906 0.477604,1.06667 1.066667,1.06667 H 46.933333 C 47.522396,49.06667 48,48.58906 48,48 V 37.33333 c 0,-0.58906 -0.477604,-1.06666 -1.066667,-1.06666 H 17.066667 C 16.477604,36.26667 16,36.74427 16,37.33333 Z M 18.133333,38.4 h 27.733334 v 8.53333 H 18.133333 Z m 0,0"
     id="path516"
     inkscape:connector-curvature="0"
     style="stroke-width:0.13333333;fill:#000000" />
  <path
     d="M 62.933333,32 H 35.2 V 18.13333 c 0,-0.58906 -0.477604,-1.06666 -1.066667,-1.06666 H 1.0666667 C 0.47760413,17.06667 0,17.54427 0,18.13333 V 62.933333 C 0,63.522396 0.47760413,64 1.0666667,64 H 62.933333 C 63.522396,64 64,63.522396 64,62.933333 V 33.06667 C 64,32.4776 63.522396,32 62.933333,32 Z m -1.066666,14.93333 h -9.6 V 38.4 h 9.6 z M 33.066667,19.2 v 13.86667 c 0,0.58906 0.477604,1.06666 1.066666,1.06666 h 27.733334 v 2.13334 H 51.2 c -0.589063,0 -1.066667,0.4776 -1.066667,1.06666 V 48 c 0,0.58906 0.477604,1.06667 1.066667,1.06667 H 61.866667 V 51.2 H 34.133333 c -0.589062,0 -1.066666,0.4776 -1.066666,1.06667 v 9.599997 H 30.933333 V 52.26667 C 30.933333,51.6776 30.455729,51.2 29.866667,51.2 H 2.1333333 V 49.06667 H 12.8 c 0.589063,0 1.066667,-0.47761 1.066667,-1.06667 V 37.33333 c 0,-0.58906 -0.477604,-1.06666 -1.066667,-1.06666 H 2.1333333 V 34.13333 H 29.866667 c 0.589062,0 1.066666,-0.4776 1.066666,-1.06666 V 22.4 c 0,-0.58906 -0.477604,-1.06667 -1.066666,-1.06667 H 2.1333333 V 19.2 Z M 2.1333333,38.4 h 9.5999997 v 8.53333 H 2.1333333 Z m 0,-14.93333 H 28.8 V 32 H 2.1333333 Z m 0,38.399997 V 53.33333 H 28.8 v 8.533337 z m 59.7333337,0 H 35.2 V 53.33333 h 26.666667 z m 0,0"
     id="path518"
     inkscape:connector-curvature="0"
     style="stroke-width:0.13333333;fill:#000000" />
  <rect
     id="rect534"
     width="28"
     height="10"
     x="34"
     y="2"
     style="fill:#ff6347;stroke-width:1.0295521;fill-opacity:1" />
  <path
     d="m 62.933333,0 h -28.8 c -0.589062,0 -1.066666,0.4776 -1.066666,1.06667 v 10.66666 c 0,0.58907 0.477604,1.06667 1.066666,1.06667 h 28.8 C 63.522396,12.8 64,12.3224 64,11.73333 V 1.06667 C 64,0.4776 63.522396,0 62.933333,0 Z M 61.866667,10.66667 H 35.2 V 2.13333 h 26.666667 z m 0,0"
     id="path520"
     inkscape:connector-curvature="0"
     style="stroke-width:0.13333333;fill:#000000" />
  <path
     d="M 42.666667,14.93333 V 26.225 l -2.445834,-2.44583 -1.508333,1.50833 4.266667,4.26667 c 0.416666,0.41614 1.091666,0.41614 1.508333,0 L 48.754167,25.2875 47.245833,23.77917 44.8,26.225 V 14.93333 Z m 0,0"
     id="path522"
     inkscape:connector-curvature="0"
     style="stroke-width:0.13333333" />
  <path
     d="M 55.466667,14.93333 V 26.225 l -2.445834,-2.44583 -1.508333,1.50833 4.266667,4.26667 c 0.416666,0.41614 1.091666,0.41614 1.508333,0 L 61.554167,25.2875 60.045833,23.77917 57.6,26.225 V 14.93333 Z m 0,0"
     id="path524"
     inkscape:connector-curvature="0"
     style="stroke-width:0.13333333" />
</svg>
