<?xml version="1.0" encoding="iso-8859-1"?>
<!-- Generator: Adobe Illustrator 16.0.0, SVG Export Plug-In . SVG Version: 6.00 Build 0)  -->
<!DOCTYPE svg PUBLIC "-//W3C//DTD SVG 1.1//EN" "http://www.w3.org/Graphics/SVG/1.1/DTD/svg11.dtd">
<svg version="1.1" id="Capa_1" xmlns="http://www.w3.org/2000/svg" xmlns:xlink="http://www.w3.org/1999/xlink" x="0px" y="0px"
	 width="478.512px" height="478.512px" viewBox="0 0 478.512 478.512" style="enable-background:new 0 0 478.512 478.512;"
	 xml:space="preserve">
<g>
	<g id="icons_2_">
		<g>
			<polygon points="269.784,70.73 276.471,70.73 273.253,59.671 			"/>
			<path d="M177.491,54.892c-0.833-0.853-1.75-1.454-2.729-1.786c-1.018-0.346-1.955-0.521-2.787-0.521
				c-0.836,0-1.774,0.175-2.792,0.521c-0.977,0.332-1.893,0.934-2.728,1.786c-0.848,0.869-1.58,2.104-2.179,3.672
				c-0.603,1.583-0.91,3.677-0.91,6.226c0,2.551,0.308,4.645,0.91,6.226c0.599,1.569,1.331,2.805,2.179,3.673
				c0.835,0.854,1.751,1.455,2.728,1.786c1.015,0.346,1.953,0.521,2.792,0.521c0.834,0,1.772-0.175,2.787-0.521
				c0.979-0.331,1.896-0.932,2.729-1.786c0.848-0.867,1.58-2.102,2.179-3.673c0.604-1.583,0.911-3.678,0.911-6.226
				c0-2.546-0.307-4.641-0.911-6.226C179.071,56.994,178.337,55.759,177.491,54.892z"/>
			<path d="M125.759,58.18c-0.7-1.118-1.768-2.098-3.17-2.911c-1.394-0.808-3.368-1.218-5.867-1.218h-3.808V75.53h4.874
				c2.1,0,3.789-0.375,5.024-1.112c1.251-0.747,2.218-1.669,2.874-2.744c0.675-1.101,1.129-2.302,1.353-3.568
				c0.236-1.323,0.354-2.528,0.354-3.582c0-0.708-0.097-1.684-0.289-2.898C126.923,60.48,126.471,59.321,125.759,58.18z"/>
			<path d="M384.987,0H93.524c-17.566,0-31.86,14.293-31.86,31.861V99.2c0,17.567,14.294,31.86,31.86,31.86
				c0,0,293.084-0.041,293.883-0.102c16.44-1.242,29.44-15.006,29.44-31.759V31.861C416.849,14.293,402.556,0,384.987,0z
				 M142.264,74.89c-1.014,3.065-2.583,5.709-4.664,7.859c-2.083,2.153-4.749,3.827-7.923,4.976
				c-3.146,1.139-6.876,1.717-11.088,1.717H97.394c-0.475,0-0.859-0.384-0.859-0.858V40.996c0-0.474,0.385-0.858,0.859-0.858h24.061
				c4.068,0,7.572,0.714,10.412,2.122c2.837,1.409,5.169,3.286,6.93,5.579c1.75,2.28,3.034,4.938,3.816,7.901
				c0.771,2.926,1.161,5.948,1.161,8.984C143.773,68.44,143.265,71.861,142.264,74.89z M195.17,75.125
				c-1.19,3.138-2.9,5.881-5.081,8.154c-2.184,2.276-4.85,4.081-7.919,5.363c-3.072,1.282-6.502,1.933-10.194,1.933
				c-3.696,0-7.126-0.65-10.196-1.933c-3.073-1.283-5.737-3.088-7.92-5.363c-2.182-2.272-3.892-5.016-5.081-8.154
				c-1.189-3.125-1.791-6.602-1.791-10.336c0-3.731,0.602-7.208,1.791-10.335c1.19-3.139,2.899-5.882,5.081-8.154
				c2.181-2.273,4.845-4.077,7.918-5.362c3.072-1.283,6.502-1.933,10.198-1.933c3.692,0,7.122,0.65,10.194,1.933
				c3.071,1.285,5.737,3.088,7.919,5.362c2.181,2.272,3.89,5.016,5.081,8.154c1.188,3.13,1.79,6.607,1.79,10.335
				C196.96,68.521,196.358,71.997,195.17,75.125z M246.079,88.584c0,0.475-0.384,0.858-0.858,0.858h-14.263
				c-0.311,0-0.596-0.167-0.748-0.438l-13.122-23.371v22.95c0,0.475-0.386,0.858-0.858,0.858h-13.864
				c-0.474,0-0.858-0.384-0.858-0.858V40.996c0-0.474,0.385-0.858,0.858-0.858h14.997c0.314,0,0.604,0.171,0.754,0.447
				l12.384,22.746V40.996c0-0.474,0.384-0.858,0.858-0.858h13.862c0.477,0,0.858,0.384,0.858,0.858V88.584z M298.443,89.076
				c-0.16,0.229-0.422,0.366-0.702,0.366h-15.197c-0.38,0-0.716-0.251-0.823-0.617l-1.818-6.181h-13.855l-1.943,6.197
				c-0.112,0.357-0.444,0.601-0.818,0.601h-14.729c-0.281,0-0.545-0.136-0.707-0.368c-0.16-0.229-0.196-0.524-0.101-0.787
				l17.528-47.588c0.123-0.337,0.445-0.562,0.807-0.562h14.328c0.361,0,0.686,0.226,0.809,0.564l17.328,47.588
				C298.644,88.553,298.604,88.846,298.443,89.076z M336.456,52.783c0,0.473-0.385,0.858-0.859,0.858h-12.471v34.533
				c0,0.474-0.385,0.858-0.858,0.858h-14.662c-0.475,0-0.858-0.384-0.858-0.858V53.641h-12.474c-0.474,0-0.855-0.385-0.855-0.858
				V40.585c0-0.473,0.383-0.857,0.855-0.857h41.323c0.476,0,0.859,0.384,0.859,0.857V52.783z M381.978,88.174
				c0,0.474-0.385,0.858-0.857,0.858h-40.124c-0.474,0-0.858-0.384-0.858-0.858V40.585c0-0.473,0.386-0.857,0.858-0.857h39.391
				c0.474,0,0.857,0.384,0.857,0.857v12.198c0,0.473-0.385,0.858-0.857,0.858h-23.869v4.215h21.604c0.475,0,0.858,0.384,0.858,0.858
				v11.331c0,0.474-0.385,0.858-0.858,0.858h-21.604v4.215h24.604c0.474,0,0.858,0.384,0.858,0.858v12.198H381.978z"/>
			<path d="M365.837,287.807c-0.592-1.295-1.783-2.221-3.186-2.473l-110.88-19.959c0,0-9.321-2.779-25.5,0.192
				c-16.182,2.972-107.615,19.766-107.615,19.766c-1.381,0.253-2.556,1.16-3.151,2.433l-31.419,85.996
				c-1.431,3.056,1.017,6.506,4.375,6.168l28.11-2.842c-0.001,0.051-0.012,0.098-0.01,0.148l1.895,73.203
				c0.053,2.014,1.479,3.727,3.45,4.141l109.786,23.094c5.369,1.129,10.914,1.117,16.279-0.037l110.979-23.863
				c2.003-0.43,3.433-2.201,3.433-4.25v-92.857l27.76-0.002c3.308,0.266,5.68-3.117,4.304-6.137L365.837,287.807z"/>
			<path d="M247.405,155.855h-16.298c-2.999,0-5.433,2.432-5.433,5.433v28.842H212.1c-4.184,0-6.798,4.528-4.706,8.151
				l27.159,47.029c2.092,3.621,7.32,3.621,9.41,0l27.156-47.031c2.088-3.621-0.525-8.149-4.706-8.149h-13.574v-28.842
				C252.839,158.286,250.405,155.855,247.405,155.855z"/>
		</g>
	</g>
</g>
<g>
</g>
<g>
</g>
<g>
</g>
<g>
</g>
<g>
</g>
<g>
</g>
<g>
</g>
<g>
</g>
<g>
</g>
<g>
</g>
<g>
</g>
<g>
</g>
<g>
</g>
<g>
</g>
<g>
</g>
</svg>
