<?xml version="1.0" encoding="iso-8859-1"?>
<!-- Generator: Adobe Illustrator 19.0.0, SVG Export Plug-In . SVG Version: 6.00 Build 0)  -->
<svg version="1.1" id="Capa_1" xmlns="http://www.w3.org/2000/svg" xmlns:xlink="http://www.w3.org/1999/xlink" x="0px" y="0px"
	 viewBox="0 0 469.335 469.335" style="enable-background:new 0 0 469.335 469.335;" xml:space="preserve">
<path style="fill:#303C42;" d="M377.146,0.71c-1.237-0.474-2.521-0.708-3.813-0.71c-2.341,0-4.677,0.768-6.583,2.272
	c-0.375,0.302-39.729,30.917-71.292,40.896c-7.5,2.365-18.063,5.313-30.188,8.708c-57.896,16.188-107.146,30.917-123.479,47.25
	c-18.215,18.215-30.176,89.999-34.029,116.426C46.788,225.301,0.001,277.654,0.001,341.335c0,70.583,57.417,128,128,128
	s128-56.958,128-127.542c0-15.505-2.965-30.628-8.499-45.151c18.984-10.654,38.482-18.049,52.186-19.359
	c2.979-0.281,5.813-0.406,8.604-0.542c15.396-0.719,31.333-1.458,60.646-22.781c15.75-11.448,24.813-26.396,34.417-42.208
	c13.167-21.75,26.813-44.229,60.667-63.854c3.292-1.906,5.313-5.427,5.313-9.229C469.334,37.168,378.063,1.064,377.146,0.71z
	 M189.105,224.324l21.125-44.688c5.75-1.635,15.375-4.5,22.875-7.375c2.271,1.292,4.813,2.406,7.542,3.594
	c4.396,1.938,9.229,4.052,12.979,7.01C242.501,198.46,213.23,214.47,189.105,224.324z"/>
<path style="fill:#FFCA28;" d="M128.001,448.46c-58.813,0-106.667-47.854-106.667-106.667s47.854-106.667,106.667-106.667
	c11.629,0,23.115,2.094,34.053,5.777c-8.508,6.656-16.991,14.608-23.919,23.122c-1.199-4.581-5.176-8.025-10.134-8.025
	c-5.896,0-10.667,4.771-10.667,10.667v11.206c-18.046,2.615-32,18.036-32,36.794c0,20.583,16.75,37.333,37.333,37.333h10.667
	c8.813,0,16,7.177,16,16s-7.188,16-16,16H96.001c-5.896,0-10.667,4.771-10.667,10.667c0,5.896,4.771,10.667,10.667,10.667h21.333
	v10.667c0,5.896,4.771,10.667,10.667,10.667c5.896,0,10.667-4.771,10.667-10.667v-11.206c18.046-2.615,32-18.036,32-36.794
	c0-20.583-16.75-37.333-37.333-37.333h-10.667c-8.813,0-16-7.177-16-16c0-8.823,7.188-16,16-16h0.495
	c0.27,6.961,2.926,13.171,7.964,18.208c9.771,9.76,22.125,13.688,35.313,13.688c21.161,0,44.445-10.147,62.648-22.518
	c3.693,10.918,5.581,22.225,5.581,33.747C234.667,400.605,186.813,448.46,128.001,448.46z"/>
<path style="opacity:0.2;fill:#FFFFFF;enable-background:new    ;" d="M32.001,352.001c0-58.813,47.854-106.667,106.667-106.667
	c5.582,0,11.124,0.539,16.595,1.448c2.268-1.975,4.49-4.078,6.792-5.879c-10.939-3.684-22.424-5.777-34.053-5.777
	c-58.813,0-106.667,47.854-106.667,106.667c0,32.678,15.091,61.608,38.31,81.191C42.65,404.083,32.001,379.357,32.001,352.001z"/>
<path style="fill:#FFE082;" d="M385.105,200.689c-8.813,14.531-16.417,27.083-28.708,36.021
	c-24.146,17.563-35.167,18.073-49.104,18.719c-3.125,0.146-6.292,0.302-9.646,0.625c-21.604,2.052-52.896,15.333-79.708,33.833
	c-23.813,16.469-56.438,27.198-71.729,11.906c-1.25-1.25-2.292-2.938-1.521-6.76c3.396-16.708,34.479-43.677,51.312-50.479
	c20.229-8.167,68.542-30.281,80.521-59.135c1.354-3.281,1-7.042-0.979-10c-7.104-10.667-18.229-15.531-26.333-19.094
	c-2.479-1.083-5.75-2.344-5.771-2.396c-3.021-4.385-8.854-5.823-13.542-3.469c-6.5,3.25-23.854,8.25-30,9.906
	c-3.021,0.813-5.542,2.917-6.875,5.75l-25.591,54.158c-12.195-3.949-24.923-6.216-37.822-6.38
	c5.99-38.84,17.167-89.583,27.267-99.684c13.708-13.698,76.583-31.281,114.146-41.792c12.375-3.469,23.188-6.49,30.854-8.917
	c28.333-8.938,60.458-31.375,72.833-40.51c17.042,8.406,70.271,40.167,73.167,109.719
	C413.167,154.408,397.667,179.96,385.105,200.689z"/>
<linearGradient id="SVGID_1_" gradientUnits="userSpaceOnUse" x1="-59.6379" y1="610.5496" x2="-55.6562" y2="606.5679" gradientTransform="matrix(21.3333 0 0 -21.3333 1430.0979 13315.2373)">
	<stop  offset="0" style="stop-color:#000000;stop-opacity:0.15"/>
	<stop  offset="0.856" style="stop-color:#000000;stop-opacity:0.022"/>
	<stop  offset="1" style="stop-color:#000000;stop-opacity:0"/>
</linearGradient>
<path style="fill:url(#SVGID_1_);" d="M234.667,341.793c0-11.522-1.888-22.829-5.581-33.747
	c-18.203,12.371-41.487,22.518-62.648,22.518c-13.188,0-25.542-3.927-35.313-13.688l16.737,16.737
	c8.921,3.783,16.077,10.939,19.859,19.859l48.346,48.346C227.774,384.701,234.667,364.048,234.667,341.793z"/>
<path style="opacity:0.1;enable-background:new    ;" d="M386.685,131.519c-20,25.333-28.907,43.438-60.667,76
	c-28.753,29.48-106.108,46.324-148.456,100.586c13.417-2.639,28.068-9.525,40.404-18.034c26.813-18.5,58.104-31.781,79.708-33.833
	c3.333-0.323,6.51-0.479,9.646-0.625c13.938-0.646,24.938-1.156,49.094-18.719c12.271-8.927,19.885-21.479,28.698-36.021
	c12.573-20.729,28.063-46.281,62.781-67.979c-0.837-20.121-6.13-36.742-13.298-50.887C415.68,98.27,398.475,116.585,386.685,131.519
	z"/>
<linearGradient id="SVGID_2_" gradientUnits="userSpaceOnUse" x1="-63.6366" y1="616.7633" x2="-48.6559" y2="609.7775" gradientTransform="matrix(21.3333 0 0 -21.3333 1430.0979 13315.2373)">
	<stop  offset="0" style="stop-color:#FFFFFF;stop-opacity:0.2"/>
	<stop  offset="1" style="stop-color:#FFFFFF;stop-opacity:0"/>
</linearGradient>
<path style="fill:url(#SVGID_2_);" d="M377.146,0.71c-1.237-0.474-2.521-0.708-3.813-0.71c-2.341,0-4.677,0.768-6.583,2.272
	c-0.375,0.302-39.729,30.917-71.292,40.896c-7.5,2.365-18.063,5.313-30.188,8.708c-57.896,16.188-107.146,30.917-123.479,47.25
	c-18.215,18.215-30.176,89.999-34.029,116.426C46.788,225.301,0.001,277.654,0.001,341.335c0,70.583,57.417,128,128,128
	s128-56.958,128-127.542c0-15.505-2.965-30.628-8.499-45.151c18.984-10.654,38.482-18.049,52.186-19.359
	c2.979-0.281,5.813-0.406,8.604-0.542c15.396-0.719,31.333-1.458,60.646-22.781c15.75-11.448,24.813-26.396,34.417-42.208
	c13.167-21.75,26.813-44.229,60.667-63.854c3.292-1.906,5.313-5.427,5.313-9.229C469.334,37.168,378.063,1.064,377.146,0.71z
	 M189.105,224.324l21.125-44.688c5.75-1.635,15.375-4.5,22.875-7.375c2.271,1.292,4.813,2.406,7.542,3.594
	c4.396,1.938,9.229,4.052,12.979,7.01C242.501,198.46,213.23,214.47,189.105,224.324z"/>
<g>
</g>
<g>
</g>
<g>
</g>
<g>
</g>
<g>
</g>
<g>
</g>
<g>
</g>
<g>
</g>
<g>
</g>
<g>
</g>
<g>
</g>
<g>
</g>
<g>
</g>
<g>
</g>
<g>
</g>
</svg>
