<?xml version="1.0" encoding="iso-8859-1"?>
<!-- Generator: Adobe Illustrator 18.0.0, SVG Export Plug-In . SVG Version: 6.00 Build 0)  -->
<!DOCTYPE svg PUBLIC "-//W3C//DTD SVG 1.1//EN" "http://www.w3.org/Graphics/SVG/1.1/DTD/svg11.dtd">
<svg version="1.1" id="Capa_1" xmlns="http://www.w3.org/2000/svg" xmlns:xlink="http://www.w3.org/1999/xlink" x="0px" y="0px"
	 viewBox="0 0 459.978 459.978" style="enable-background:new 0 0 459.978 459.978;" xml:space="preserve">
<g>
	<path d="M98.993,219.583c-5.523,0-10,4.478-10,10v14.999c0,5.522,4.477,10,10,10s10-4.478,10-10v-14.999
		C108.993,224.061,104.516,219.583,98.993,219.583z"/>
	<path d="M452.702,222.961c-5.31-1.508-10.842,1.58-12.348,6.895c-1.944,6.86-6.565,12.449-12.517,15.793
		c-4.148-34.584-24.321-66.44-57.871-90.812c-18.453-13.405-39.929-23.75-63.264-30.699c3.351-8.875,5.088-18.332,5.088-28.044
		c0-43.837-35.664-79.5-79.5-79.5s-79.5,35.663-79.5,79.5c0,10.147,1.893,19.995,5.533,29.196
		c-11.075,3.513-21.733,7.819-31.871,12.884c-9.836-6.315-21.438-9.837-33.642-9.837H51.746c-6.067,0-11.537,3.654-13.858,9.26
		c-2.321,5.605-1.038,12.057,3.252,16.347l28.251,28.251c-11.891,14.309-20.382,30.097-25.037,46.63H15c-8.284,0-15,6.716-15,15
		v47.31c0,17.392,8.8,33.285,23.544,42.517c14.999,9.383,38.094,22.737,66.066,35.317v59.416c0,8.284,6.716,15,15,15h52.88
		c7.14,0,13.291-5.033,14.704-12.031l6.647-32.929c19.306,3.872,37.936,5.83,55.559,5.83c15.814,0,31.43-1.403,46.606-4.181
		l7.366,31.705c1.579,6.796,7.634,11.605,14.611,11.605h51.857c8.284,0,15-6.716,15-15v-65.041
		c34.939-25.353,55.833-59.771,58.508-96.293c14.832-4.508,26.876-16.316,31.248-31.741
		C461.103,229.995,458.016,224.467,452.702,222.961z M182.79,96.094c0-27.294,22.206-49.5,49.5-49.5s49.5,22.206,49.5,49.5
		c0,7.444-1.635,14.641-4.768,21.214c-13.839-2.293-28.114-3.474-42.622-3.474c-15.889,0-31.472,1.399-46.523,4.137
		C184.536,111.221,182.79,103.797,182.79,96.094z M346.584,342.961c-4.21,2.775-6.744,7.48-6.744,12.523v57.899h-24.942
		l-8.007-34.465c-0.909-3.912-3.349-7.296-6.773-9.395c-3.425-2.099-7.547-2.737-11.446-1.771c-17.406,4.313-35.666,6.5-54.272,6.5
		c-19.801,0-41.205-2.819-63.619-8.379c-3.972-0.986-8.174-0.306-11.633,1.884c-3.458,2.188-5.872,5.695-6.682,9.706l-7.251,35.919
		H119.61v-54.22c0-6.01-3.587-11.439-9.115-13.797c-30.284-12.919-55.347-27.333-71.036-37.147
		c-5.923-3.709-9.46-10.096-9.46-17.086v-32.31h26.38c7.367,0,13.644-5.351,14.811-12.625c2.395-14.933,9.088-29.467,19.529-42.675
		l0.666,0.666c2.929,2.929,6.768,4.394,10.606,4.394s7.678-1.465,10.606-4.394c5.858-5.857,5.858-15.355,0-21.213l-24.639-24.64
		h4.85c12.131,0,23.124,6.706,28.689,17.501c3.796,7.362,12.843,10.254,20.206,6.458c7.363-3.796,10.255-12.843,6.459-20.206
		c-0.134-0.26-0.277-0.513-0.414-0.771c25.955-11.465,55.558-17.485,86.652-17.485c44.737,0,86.621,12.527,117.934,35.274
		c29.867,21.697,46.316,50.085,46.316,79.936C398.65,290.559,379.673,321.146,346.584,342.961z"/>
</g>
<g>
</g>
<g>
</g>
<g>
</g>
<g>
</g>
<g>
</g>
<g>
</g>
<g>
</g>
<g>
</g>
<g>
</g>
<g>
</g>
<g>
</g>
<g>
</g>
<g>
</g>
<g>
</g>
<g>
</g>
</svg>
