<?xml version="1.0" encoding="UTF-8" standalone="no"?>
<!-- Created with Inkscape (http://www.inkscape.org/) -->

<svg
   xmlns:dc="http://purl.org/dc/elements/1.1/"
   xmlns:cc="http://creativecommons.org/ns#"
   xmlns:rdf="http://www.w3.org/1999/02/22-rdf-syntax-ns#"
   xmlns:svg="http://www.w3.org/2000/svg"
   xmlns="http://www.w3.org/2000/svg"
   xmlns:sodipodi="http://sodipodi.sourceforge.net/DTD/sodipodi-0.dtd"
   xmlns:inkscape="http://www.inkscape.org/namespaces/inkscape"
   width="24"
   height="24"
   viewBox="0 0 24 24.000001"
   version="1.1"
   id="svg8"
   inkscape:version="0.92.4 (f8dce91, 2019-08-02)"
   sodipodi:docname="piggy-bank-new.svg">
  <defs
     id="defs2" />
  <sodipodi:namedview
     id="base"
     pagecolor="#ffffff"
     bordercolor="#666666"
     borderopacity="1.0"
     inkscape:pageopacity="0.0"
     inkscape:pageshadow="2"
     inkscape:zoom="15.762589"
     inkscape:cx="11.695243"
     inkscape:cy="12.429214"
     inkscape:document-units="px"
     inkscape:current-layer="layer1"
     showgrid="false"
     units="px"
     inkscape:window-width="1360"
     inkscape:window-height="719"
     inkscape:window-x="0"
     inkscape:window-y="25"
     inkscape:window-maximized="1" />
  <metadata
     id="metadata5">
    <rdf:RDF>
      <cc:Work
         rdf:about="">
        <dc:format>image/svg+xml</dc:format>
        <dc:type
           rdf:resource="http://purl.org/dc/dcmitype/StillImage" />
        <dc:title></dc:title>
      </cc:Work>
    </rdf:RDF>
  </metadata>
  <g
     inkscape:label="Layer 1"
     inkscape:groupmode="layer"
     id="layer1"
     transform="translate(0,-1098.5197)">
    <g
       id="g215"
       transform="matrix(0.05217642,0,0,0.05217642,0,1099.3855)">
      <g
         id="g158">
	<path
   id="path156"
   d="m 452.702,222.961 c -5.31,-1.508 -10.842,1.58 -12.348,6.895 -1.944,6.86 -6.565,12.449 -12.517,15.793 -4.148,-34.584 -24.321,-66.44 -57.871,-90.812 -18.453,-13.405 -39.929,-23.75 -63.264,-30.699 3.351,-8.875 5.088,-18.332 5.088,-28.044 0,-43.837 -35.664,-79.5 -79.5,-79.5 -43.836,0 -79.5,35.663 -79.5,79.5 0,10.147 1.893,19.995 5.533,29.196 -11.075,3.513 -21.733,7.819 -31.871,12.884 -9.836,-6.315 -21.438,-9.837 -33.642,-9.837 H 51.746 c -6.067,0 -11.537,3.654 -13.858,9.26 -2.321,5.605 -1.038,12.057 3.252,16.347 l 28.251,28.251 C 57.5,196.504 49.009,212.292 44.354,228.825 H 15 c -8.284,0 -15,6.716 -15,15 v 47.31 c 0,17.392 8.8,33.285 23.544,42.517 14.999,9.383 38.094,22.737 66.066,35.317 v 59.416 c 0,8.284 6.716,15 15,15 h 52.88 c 7.14,0 13.291,-5.033 14.704,-12.031 l 6.647,-32.929 c 19.306,3.872 37.936,5.83 55.559,5.83 15.814,0 31.43,-1.403 46.606,-4.181 l 7.366,31.705 c 1.579,6.796 7.634,11.605 14.611,11.605 h 51.857 c 8.284,0 15,-6.716 15,-15 v -65.041 c 34.939,-25.353 55.833,-59.771 58.508,-96.293 14.832,-4.508 26.876,-16.316 31.248,-31.741 1.507,-5.314 -1.58,-10.842 -6.894,-12.348 z M 182.79,96.094 c 0,-27.294 22.206,-49.5 49.5,-49.5 27.294,0 49.5,22.206 49.5,49.5 0,7.444 -1.635,14.641 -4.768,21.214 -13.839,-2.293 -28.114,-3.474 -42.622,-3.474 -15.889,0 -31.472,1.399 -46.523,4.137 -3.341,-6.75 -5.087,-14.174 -5.087,-21.877 z"
   inkscape:connector-curvature="0"
   sodipodi:nodetypes="cccccsssccsscsccsssccsssccsccsssccccssscscs" />
<path
   id="path154"
   d="m 98.993,219.583 c -5.523,0 -10,4.478 -10,10 v 14.999 c 0,5.522 4.477,10 10,10 5.523,0 10,-4.478 10,-10 v -14.999 c 0,-5.522 -4.477,-10 -10,-10 z"
   inkscape:connector-curvature="0"
   style="fill:#e6e6e6" />

	
</g>
      <g
         id="g160">
</g>
      <g
         id="g162">
</g>
      <g
         id="g164">
</g>
      <g
         id="g166">
</g>
      <g
         id="g168">
</g>
      <g
         id="g170">
</g>
      <g
         id="g172">
</g>
      <g
         id="g174">
</g>
      <g
         id="g176">
</g>
      <g
         id="g178">
</g>
      <g
         id="g180">
</g>
      <g
         id="g182">
</g>
      <g
         id="g184">
</g>
      <g
         id="g186">
</g>
      <g
         id="g188">
</g>
    </g>
    <path
       style="fill:#ffffff;stroke-width:0.17513104"
       id="path86-3"
       d="m 11.883684,1115.2761 c -0.392294,0 -0.808756,-0.096 -1.173027,-0.2694 -0.224694,-0.1074 -0.486514,-0.114 -0.7176882,-0.022 -0.2353757,0.096 -0.4194379,0.2899 -0.5050771,0.5288 l -0.035724,0.099 c -0.1523642,0.4262 0.035724,0.8985 0.4380013,1.0986 0.372854,0.1863 0.82907,0.3198 1.29562,0.3823 v 0.3787 c 0,0.4925 0.400875,0.8933 0.905603,0.8933 0.492817,0 0.893518,-0.4008 0.893518,-0.8933 v -0.4833 c 1.17548,-0.355 1.929594,-1.3209 1.929594,-2.4847 0,-1.6036 -1.182835,-2.2916 -2.211029,-2.7108 -1.112958,-0.4607 -1.196496,-0.6621 -1.196496,-0.9168 0,-0.3351 0.291419,-0.5354 0.779859,-0.5354 0.357793,0 0.680033,0.063 0.985987,0.1972 0.222942,0.096 0.469701,0.096 0.69457,0 0.224167,-0.094 0.402275,-0.2801 0.488615,-0.5083 l 0.03572,-0.094 c 0.169876,-0.4482 -0.03993,-0.9475 -0.477407,-1.1359 -0.293518,-0.1272 -0.614708,-0.2148 -0.956215,-0.2641 v -0.3343 c 0,-0.4927 -0.400875,-0.8935 -0.893518,-0.8935 -0.492644,0 -0.893343,0.4008 -0.893343,0.8935 v 0.4465 c -1.140278,0.3447 -1.8441296,1.2468 -1.8441296,2.3749 0,1.4747 1.1838846,2.1379 2.3365976,2.5901 0.977056,0.396 1.058667,0.7114 1.058667,0.9761 -1.76e-4,0.5037 -0.505603,0.6823 -0.938702,0.6823 z"
       inkscape:connector-curvature="0" />
  </g>
</svg>
