<svg xmlns="http://www.w3.org/2000/svg" xmlns:xlink="http://www.w3.org/1999/xlink"><defs><symbol viewBox="0 0 24 24" id="baseline-arrow_back-24px"><path d="M0 0h24v24H0z" fill="none" /><path d="M20 11H7.83l5.59-5.59L12 4l-8 8 8 8 1.41-1.41L7.83 13H20v-2z" /></symbol><symbol viewBox="0 0 24 24" id="baseline-arrow_forward-24px"><path d="M0 0h24v24H0z" fill="none" /><path d="M12 4l-1.41 1.41L16.17 11H4v2h12.17l-5.58 5.59L12 20l8-8z" /></symbol><symbol viewBox="0 0 24 24" id="baseline-close-24px"><path d="M19 6.41L17.59 5 12 10.59 6.41 5 5 6.41 10.59 12 5 17.59 6.41 19 12 13.41 17.59 19 19 17.59 13.41 12z" /><path d="M0 0h24v24H0z" fill="none" /></symbol><symbol viewBox="0 0 24 24" id="baseline-done-24px"><path fill="none" d="M0 0h24v24H0z" /><path d="M9 16.2L4.8 12l-1.4 1.4L9 19 21 7l-1.4-1.4L9 16.2z" /></symbol><symbol viewBox="0 0 24 24" id="baseline-error_outline-24px"><path fill="none" d="M0 0h24v24H0V0z" /><path d="M11 15h2v2h-2zm0-8h2v6h-2zm.99-5C6.47 2 2 6.48 2 12s4.47 10 9.99 10C17.52 22 22 17.52 22 12S17.52 2 11.99 2zM12 20c-4.42 0-8-3.58-8-8s3.58-8 8-8 8 3.58 8 8-3.58 8-8 8z" /></symbol><symbol viewBox="0 0 24 24" id="baseline-info-24px"><path d="M0 0h24v24H0z" fill="none" /><path d="M12 2C6.48 2 2 6.48 2 12s4.48 10 10 10 10-4.48 10-10S17.52 2 12 2zm1 15h-2v-6h2v6zm0-8h-2V7h2v2z" /></symbol><symbol viewBox="0 0 24 24" id="baseline-keyboard_arrow_down-24px"><path d="M7.41 8.59L12 13.17l4.59-4.58L18 10l-6 6-6-6 1.41-1.41z" /><path fill="none" d="M0 0h24v24H0V0z" /></symbol><symbol viewBox="0 0 24 24" id="baseline-link-24px"><path d="M0 0h24v24H0z" fill="none" /><path d="M3.9 12c0-1.71 1.39-3.1 3.1-3.1h4V7H7c-2.76 0-5 2.24-5 5s2.24 5 5 5h4v-1.9H7c-1.71 0-3.1-1.39-3.1-3.1zM8 13h8v-2H8v2zm9-6h-4v1.9h4c1.71 0 3.1 1.39 3.1 3.1s-1.39 3.1-3.1 3.1h-4V17h4c2.76 0 5-2.24 5-5s-2.24-5-5-5z" /></symbol><symbol viewBox="0 0 24 24" id="baseline-menu-24px"><path d="M0 0h24v24H0z" fill="none" /><path d="M3 18h18v-2H3v2zm0-5h18v-2H3v2zm0-7v2h18V6H3z" /></symbol><symbol viewBox="0 0 24 24" id="baseline-navigate_before-24px"><path d="M15.41 7.41L14 6l-6 6 6 6 1.41-1.41L10.83 12z" /><path d="M0 0h24v24H0z" fill="none" /></symbol><symbol viewBox="0 0 24 24" id="baseline-navigate_next-24px"><path d="M10 6L8.59 7.41 13.17 12l-4.58 4.59L10 18l6-6z" /><path d="M0 0h24v24H0z" fill="none" /></symbol><symbol viewBox="0 0 24 24" id="baseline-person-24px"><path d="M12 12c2.21 0 4-1.79 4-4s-1.79-4-4-4-4 1.79-4 4 1.79 4 4 4zm0 2c-2.67 0-8 1.34-8 4v2h16v-2c0-2.66-5.33-4-8-4z" /><path d="M0 0h24v24H0z" fill="none" /></symbol><symbol viewBox="0 0 24 24" id="iconmonstr-book-17"><path d="M23 5v13.883L22 19V3c-3.895.119-7.505.762-10.002 2.316C9.502 3.762 5.896 3.119 2 3v16l-1-.117V5H0v15h9.057c1.479 0 1.641 1 2.941 1 1.304 0 1.461-1 2.942-1H24V5h-1zM11 18.645c-1.946-.772-4.137-1.269-7-1.484V5.11c2.352.197 4.996.675 7 1.922v11.613zm9-1.484c-2.863.215-5.054.712-7 1.484V7.032c2.004-1.247 4.648-1.725 7-1.922v12.051z" /></symbol><symbol viewBox="0 0 24 24" id="iconmonstr-bug-3"><path d="M7.074 1.408A1.42 1.42 0 0 1 8.505 0c.942 0 1.626.883 1.38 1.776-.093.336-.042.695.138.995.401.664 1.084 1.073 1.977 1.078.88-.004 1.572-.408 1.977-1.078.181-.299.23-.658.139-.995C13.869.884 14.551 0 15.495 0c.79 0 1.431.63 1.431 1.408 0 .675-.482 1.234-1.117 1.375-.322.071-.6.269-.77.548-.613 1.017.193 1.917.931 2.823C14.759 6.716 13.445 7 12 7c-1.468 0-2.771-.277-3.975-.84.748-.92 1.555-1.803.935-2.83a1.195 1.195 0 0 0-.768-.548 1.414 1.414 0 0 1-1.118-1.374zM11 8.939c-1.709-.135-3.271-.599-4.703-1.435a10.06 10.06 0 0 0-.601 1.146c-.227.514-.646.552-.941.437l-2.295-.89a1.06 1.06 0 0 0-1.367.584 1.033 1.033 0 0 0 .594 1.346l2.231.866c.496.192.854.694.773 1.274-.106.758-.683 1.111-1.235 1.111H1.054c-.582 0-1.054.464-1.054 1.037s.472 1.037 1.054 1.037h2.387c.573 0 1.159.372 1.265 1.057.112.728-.228 1.229-.751 1.462l-2.42 1.078c-.53.236-.766.851-.526 1.373s.865.753 1.395.518l2.561-1.14c.307-.137.688-.106.901.259C6.788 21.646 8.54 23.42 11 24V8.939zm9.559 6.513h2.387c.583 0 1.055-.464 1.055-1.037s-.472-1.037-1.055-1.037h-2.402c-.574 0-1.137-.393-1.227-1.052-.092-.677.286-1.147.766-1.333l2.23-.866c.541-.21.808-.813.594-1.346a1.058 1.058 0 0 0-1.367-.584l-2.294.891c-.329.127-.734.036-.926-.401a10.299 10.299 0 0 0-.62-1.188c-1.433.829-3.008 1.3-4.699 1.439V24c2.406-.567 4.134-2.284 5.072-3.837.262-.432.629-.514.964-.364l2.561 1.14a1.062 1.062 0 0 0 1.395-.518 1.031 1.031 0 0 0-.526-1.373l-2.42-1.078c-.494-.221-.867-.738-.764-1.383.128-.803.717-1.135 1.276-1.135z" /></symbol><symbol viewBox="0 0 24 24" id="iconmonstr-edit-9"><path d="M9 19H5v-2h4v2zm2.946-4.036l3.107 3.105-4.112.931 1.005-4.036zM24 9.125l-7.898 7.996-3.202-3.202 7.898-7.995L24 9.125zm-6 8.92V22H2V2h7.362C13.518 2 12 8 12 8s2.313-.635 4.067-.133l1.952-1.976C15.805 3.084 12.257 0 10.189 0H0v24h20v-7.98l-2 2.025z" /></symbol><symbol viewBox="0 0 24 24" id="iconmonstr-error-3"><path d="M16.971 0H7.029L0 7.029v9.941L7.029 24h9.941L24 16.971V7.029L16.971 0zM12 19.25a1.25 1.25 0 1 1 0-2.5 1.25 1.25 0 0 1 0 2.5zm.5-4.25h-1l-1-10h3l-1 10z" /></symbol><symbol viewBox="0 0 24 24" id="iconmonstr-facebook-4"><path d="M12 0C5.373 0 0 5.373 0 12s5.373 12 12 12 12-5.373 12-12S18.627 0 12 0zm3 8h-1.35c-.538 0-.65.221-.65.778V10h2l-.209 2H13v7h-3v-7H8v-2h2V7.692C10 5.923 10.931 5 13.029 5H15v3z" /></symbol><symbol viewBox="0 0 24 24" id="iconmonstr-pencil-9"><path d="M18.363 8.464l1.433 1.431-12.67 12.669L.001 24l1.439-7.127L14.105 4.205l1.431 1.431L3.281 17.86l-.726 3.584 3.584-.723L18.363 8.464zM18.307 0l-2.815 2.817 5.691 5.692L24 5.688 18.307 0zM5.989 18.718L17.302 7.402l-.705-.707L5.284 18.009l.705.709z" /></symbol><symbol fill-rule="evenodd" stroke-linejoin="round" stroke-miterlimit="1.414" viewBox="0 0 24 24" id="iconmonstr-telegram-1"><path d="M18.384 22.779a1.19 1.19 0 0 0 1.107.145 1.16 1.16 0 0 0 .724-.84C21.084 18 23.192 7.663 23.983 3.948a.78.78 0 0 0-.26-.758.8.8 0 0 0-.797-.14C18.733 4.602 5.82 9.447.542 11.4a.827.827 0 0 0-.542.799c.012.354.25.661.593.764 2.367.708 5.474 1.693 5.474 1.693s1.452 4.385 2.209 6.615c.095.28.314.5.603.576a.866.866 0 0 0 .811-.207l3.096-2.923s3.572 2.619 5.598 4.062zm-11.01-8.677l1.679 5.538.373-3.507 10.185-9.186a.277.277 0 0 0 .033-.377.284.284 0 0 0-.376-.064L7.374 14.102z" /></symbol><symbol fill-rule="evenodd" stroke-linejoin="round" stroke-miterlimit="1.414" viewBox="0 0 24 24" id="iconmonstr-telegram-4"><path d="M12 0C5.374 0 0 5.372 0 12c0 6.627 5.374 12 12 12 6.627 0 12-5.373 12-12 0-6.628-5.373-12-12-12zm3.224 17.871c.188.133.43.166.646.085a.678.678 0 0 0 .422-.491c.507-2.382 1.737-8.412 2.198-10.578a.457.457 0 0 0-.151-.443.47.47 0 0 0-.465-.082c-2.446.906-9.979 3.732-13.058 4.871a.484.484 0 0 0-.316.467.483.483 0 0 0 .346.445c1.381.413 3.193.988 3.193.988s.847 2.558 1.288 3.858a.512.512 0 0 0 .352.336.505.505 0 0 0 .474-.121l1.805-1.704s2.084 1.527 3.266 2.369zm-6.423-5.062l.98 3.231.218-2.046 5.941-5.358a.162.162 0 0 0 .019-.22.165.165 0 0 0-.219-.037l-6.939 4.43z" /></symbol><symbol viewBox="0 0 24 24" id="iconmonstr-twitter-4"><path d="M12 0C5.373 0 0 5.373 0 12s5.373 12 12 12 12-5.373 12-12S18.627 0 12 0zm6.066 9.645c.183 4.04-2.83 8.544-8.164 8.544A8.127 8.127 0 0 1 5.5 16.898a5.778 5.778 0 0 0 4.252-1.189 2.879 2.879 0 0 1-2.684-1.995 2.88 2.88 0 0 0 1.298-.049c-1.381-.278-2.335-1.522-2.304-2.853.388.215.83.344 1.301.359a2.877 2.877 0 0 1-.889-3.835 8.153 8.153 0 0 0 5.92 3.001 2.876 2.876 0 0 1 4.895-2.62 5.73 5.73 0 0 0 1.824-.697 2.884 2.884 0 0 1-1.263 1.589 5.73 5.73 0 0 0 1.649-.453 5.765 5.765 0 0 1-1.433 1.489z" /></symbol><symbol viewBox="0 0 24 24" id="iconmonstr-vk-4"><path d="M12 0C5.373 0 0 5.373 0 12s5.373 12 12 12 12-5.373 12-12S18.627 0 12 0zm6.344 16.163h-1.867c-1.055 0-1.232-.601-2.102-1.469-.785-.785-1.22-.183-1.202.935.006.297-.141.534-.495.534-1.105 0-2.694.156-4.304-1.58C6.727 12.804 5 9.235 5 8.884c0-.208.172-.301.459-.301h1.898c.503 0 .545.249.686.568.584 1.331 1.981 4.002 2.354 2.511.214-.856.301-2.839-.615-3.01-.52-.096.396-.652 1.722-.652.33 0 .688.035 1.054.12.673.156.676.458.666.898-.034 1.666-.235 2.786.204 3.069.419.271 1.521-1.502 2.104-2.871.159-.378.191-.632.643-.632h2.322c1.216 0-.159 1.748-1.21 3.112-.847 1.099-.802 1.12.183 2.034.701.651 1.53 1.54 1.53 2.043 0 .238-.186.39-.656.39z" /></symbol><symbol viewBox="0 0 24 24" id="piggy-bank"><path d="M7.416 5.959a.785.785 0 0 0-.764.783v2.414a6.751 6.751 0 0 0-2.16 2.377h-.455c-1.107 0-2.43.55-2.43 3.164 0 2.615 1.323 3.164 2.43 3.164h.455a6.745 6.745 0 0 0 2.938 2.825v.591c0 .447.202.878.549 1.092 1.144.705 2.877.685 4.033-.002.328-.195.521-.593.547-1.006h.974c.026.413.22.811.549 1.006 1.156.686 2.889.705 4.033 0 .347-.213.55-.643.55-1.09v-.603a6.625 6.625 0 0 0 3.726-5.979 6.674 6.674 0 0 0-6.666-6.666h-5.133C8.937 6.282 7.726 6 7.588 5.973a.778.778 0 0 0-.172-.014zm5.072 3.828h.795v.809a7.337 7.337 0 0 1 1.944.336l-.288 1.31c-.61-.215-1.286-.41-1.943-.37-1.185.068-1.29 1.095-.463 1.524 1.362.64 3.137 1.116 3.137 2.823.002 1.367-1.068 2.094-2.387 2.279v.838h-.795v-.795c-.823-.015-1.677-.21-2.388-.578l.363-1.309c.76.296 1.773.61 2.566.43.915-.208 1.1-1.148.09-1.6-.74-.344-3.006-.64-3.006-2.58 0-1.084.828-2.057 2.375-2.27z" /><path d="M14.267 3.86a2 2 0 0 1-.894 2.684 2 2 0 0 1-2.683-.894 2 2 0 0 1 .893-2.683 2 2 0 0 1 2.684.892l-1.788.896z" paint-order="markers stroke fill" /></symbol><symbol viewBox="0 0 24 24" id="telegram"><path d="M18.384 22.779a1.19 1.19 0 0 0 1.107.145 1.16 1.16 0 0 0 .724-.84C21.084 18 23.192 7.663 23.983 3.948a.78.78 0 0 0-.26-.758.8.8 0 0 0-.797-.14C18.733 4.602 5.82 9.447.542 11.4a.827.827 0 0 0-.542.799c.012.354.25.661.593.764 2.367.708 5.474 1.693 5.474 1.693s1.452 4.385 2.209 6.615c.095.28.314.5.603.576a.866.866 0 0 0 .811-.207l3.096-2.923s3.572 2.619 5.598 4.062zm-11.01-8.677l1.679 5.538.373-3.507 10.185-9.186a.277.277 0 0 0 .033-.377.284.284 0 0 0-.376-.064L7.374 14.102z" /></symbol></defs></svg>